<?xml version="1.0" encoding="utf-8"?>
<!-- Generator: Adobe Illustrator 14.0.0, SVG Export Plug-In . SVG Version: 6.00 Build 43363)  -->
<!DOCTYPE svg PUBLIC "-//W3C//DTD SVG 1.1//EN" "http://www.w3.org/Graphics/SVG/1.1/DTD/svg11.dtd">
<svg version="1.1" id="Layer_1" xmlns="http://www.w3.org/2000/svg" xmlns:xlink="http://www.w3.org/1999/xlink" x="0px" y="0px"
	 width="256px" height="128px" viewBox="0 0 256 128" enable-background="new 0 0 256 128" xml:space="preserve">
<g id="Layer_3">
	<path fill="#3891FF" stroke="#1F72DA" stroke-width="2.5" d="M251.794,107.084c0,6.627-5.373,12-12,12H18.71
		c-6.627,0-12-5.373-12-12V21.252c0-6.627,5.373-12,12-12h221.084c6.627,0,12,5.373,12,12V107.084z"/>
	<path fill="none" stroke="#FFFFFF" stroke-width="3.5" stroke-miterlimit="8" d="M245.54,102.792
		c0,5.965-4.836,10.801-10.802,10.801H24.764c-5.965,0-10.8-4.836-10.8-10.801V25.543c0-5.964,4.835-10.8,10.8-10.8h209.975
		c5.965,0,10.801,4.835,10.801,10.8V102.792L245.54,102.792z"/>
	<path fill="#97C6FF" d="M69.3,22.441c0,0-32.137-0.548-43.645,5.275C18.646,31.264,18.94,61.53,18.94,61.53
		s-3.118-33.333,3.597-37.41C29.252,20.043,69.3,22.441,69.3,22.441z"/>
</g>
<g id="Layer_2">
	<g>
		<path fill="#FFFFFF" d="M28.579,62.751l0.778-1.323c0.11-0.188,11.44-19.406,15.376-25.613l0.441-0.697h2.01l0.445,0.671
			c2.002,3.02,5.08,7.788,8.057,12.4c3.642,5.641,7.407,11.474,8.276,12.653l0.109,0.148c0.115-1.931,0.252-4.355,0.393-6.849
			c0.284-5.029,0.577-10.229,0.75-12.399l0.081-1.01l2.248-0.702l0.591,0.383c3.284,2.129,10.082,6.805,13.854,9.542
			c-0.001-0.086-0.001-0.172-0.002-0.26c-0.021-3.061-0.045-6.87-0.02-7.836l0.041-1.49l10.543,0.215l-0.143,1.601
			c-0.204,2.271-0.551,7.005-0.833,12.033l-0.095,1.673c-0.229,4.011-0.445,7.8-0.511,9.657l-0.041,1.127l-2.304,0.577l-0.533-0.318
			c-2.691-1.608-9.928-6.776-13.838-9.646c0.004,4.574,0.017,7.396,0.036,7.882l0.064,1.608l-10.7-0.327l0.16-1.599
			c0.036-0.359,0.088-1.094,0.151-2.091l-9.259,5.472l-0.764-1.291c-0.734-1.239-1.838-3.152-2.608-4.487
			c-0.129-0.224-0.249-0.431-0.355-0.615l-9.652,0.545c-0.414,0.857-1.071,2.267-1.553,3.3l-1.229,2.627L28.579,62.751z
			 M45.227,53.681l1.631-0.087c-0.093-0.183-0.646-1.268-0.823-1.615C46.035,51.979,45.493,53.116,45.227,53.681z M121.874,63.197
			l0.871-1.388c0.166-0.265,0.549-0.885,1.089-1.76c2.931-4.748,9.795-15.868,12.749-20.042l0.448-0.634h2.266l0.449,0.623
			c2.287,3.172,5.911,8.514,9.107,13.227c2.535,3.735,4.929,7.264,5.564,8.084l1.077,1.389l-9.746,5.35l-0.761-1.157
			c-0.615-0.935-1.487-2.354-2.151-3.438c-0.161-0.262-0.31-0.503-0.437-0.71l-8.412,0.41c-0.262,0.524-1.537,3.111-1.793,3.623
			l-0.678,1.354L121.874,63.197z M137.677,55.137l0.767-0.036c-0.123-0.224-0.379-0.69-0.387-0.703
			C138.057,54.399,137.805,54.891,137.677,55.137z M118.605,66.934c-2.691-1.608-9.928-6.776-13.838-9.646
			c0.004,4.574,0.017,7.396,0.036,7.882l0.064,1.608l-10.7-0.327l0.16-1.599c0.11-1.104,0.374-5.771,0.653-10.709
			c0.284-5.029,0.577-10.229,0.75-12.399l0.081-1.01l2.248-0.702l0.591,0.383c3.284,2.129,10.082,6.805,13.853,9.542
			c0-0.086-0.001-0.172-0.001-0.26c-0.021-3.061-0.045-6.87-0.02-7.836l0.041-1.49l10.543,0.215l-0.143,1.601
			c-0.204,2.271-0.551,7.005-0.833,12.033l-0.095,1.673c-0.229,4.011-0.445,7.8-0.511,9.657l-0.041,1.127l-2.304,0.577
			L118.605,66.934z M205.729,66.668c-0.399,0-0.799-0.006-1.195-0.018l-1.576-0.041l0.12-1.571
			c0.108-1.409,0.187-9.317,0.187-10.259V50.79c0-1.538-0.054-7.851-0.141-8.554l-0.21-1.685h1.698
			c7.006,0,10.42,0.138,13.529,0.545c11.152,1.4,12.021,7.803,12.021,9.732C230.161,61.77,217.891,66.668,205.729,66.668
			L205.729,66.668z M214.316,57.237c1.99-0.715,4.258-2.315,4.258-5.27c0-1.343-0.357-2.767-4.258-3.047V57.237z M187.605,66.5
			l0.041-1.54c0.035-1.391,0.074-8.993,0.074-9.763v-3.495c0-0.261-0.017-2.135-0.033-4.166c-0.021-2.416-0.043-5.052-0.043-5.485
			v-1.5h11.531l-0.1,1.594c-0.035,0.567-0.149,5.709-0.149,9.595v3.496c0,3.212,0.113,8.938,0.15,9.689l0.079,1.575H187.605z
			 M171.936,66.5l0.055-1.552c0.039-1.165,0.15-6.348,0.15-6.901v-0.628l-5.318,0.388c0.017,1.908,0.115,6.49,0.146,7.118
			l0.079,1.575h-11.553l0.042-1.541c0.037-1.377,0.074-8.824,0.074-9.762v-3.495c0-0.936-0.082-8.815-0.146-9.508l-0.151-1.638
			l1.646-0.004h10.249l-0.212,1.688c-0.054,0.515-0.149,5.139-0.173,6.749l5.314-0.389c-0.011-1.114-0.084-5.826-0.144-6.391
			l-0.172-1.655h11.747l-0.074,1.572c-0.035,0.736-0.15,9.706-0.15,10.529v3.229c0,0.626,0.079,8.27,0.144,8.949l0.151,1.639
			l-1.643,0.03L171.936,66.5L171.936,66.5z"/>
		<path fill="#1668CE" d="M46.379,36.618c4.56,6.877,14.78,22.949,16.376,25.114l-7.523,4.445c-1.102-1.862-3.04-5.243-3.419-5.889
			l-11.437,0.646c-0.304,0.532-1.672,3.496-2.508,5.281l-7.219-4.027c1.14-1.938,11.664-19.757,15.35-25.57H46.379 M42.808,55.312
			l6.421-0.342c-1.063-2.166-2.507-4.863-3.191-6.421C45.125,50.372,43.795,53.184,42.808,55.312 M138.527,40.874
			c4.219,5.851,13.261,19.491,14.705,21.353l-6.991,3.837c-1.025-1.559-2.773-4.483-3.039-4.863l-10.146,0.494
			c-0.189,0.304-1.443,2.888-2.203,4.407l-6.839-3.495c1.025-1.634,10.296-16.793,13.792-21.733H138.527 M135.186,56.755
			l5.698-0.266c-0.948-1.862-2.202-3.989-2.85-5.319C137.236,52.728,136.059,54.97,135.186,56.755 M97.833,41.671
			c4.863,3.154,15.463,10.563,16.186,11.322c0-1.748-0.076-9.688-0.038-11.094l7.447,0.152c-0.228,2.546-0.57,7.333-0.836,12.083
			c-0.266,4.673-0.532,9.232-0.608,11.36l-0.608,0.152c-3.495-2.09-14.704-10.222-16.109-11.361c0,1.672,0,9.993,0.038,10.943
			L95.819,65c0.228-2.28,1.063-18.845,1.406-23.139L97.833,41.671 M67.318,41.671c4.863,3.154,15.463,10.563,16.186,11.322
			c0-1.748-0.076-9.688-0.038-11.094l7.447,0.152c-0.228,2.546-0.57,7.333-0.836,12.083c-0.266,4.673-0.532,9.232-0.608,11.36
			l-0.608,0.152c-3.495-2.09-14.704-10.222-16.109-11.361c0,1.672,0,9.993,0.038,10.943L65.305,65
			c0.228-2.28,1.063-18.845,1.406-23.139L67.318,41.671 M204.611,42.051c6.496,0,10.145,0.114,13.336,0.532
			c9.08,1.14,10.714,5.623,10.714,8.245c0,10.13-11.915,14.34-22.933,14.34c-0.387,0-0.771-0.005-1.155-0.016
			c0.112-1.482,0.188-9.5,0.188-10.374V50.79C204.764,50.106,204.725,42.963,204.611,42.051 M212.816,59.149
			c3.117-0.418,7.258-2.66,7.258-7.181c0-3.989-3.647-4.597-7.258-4.597V59.149 M197.58,42.051
			c-0.038,0.608-0.152,5.813-0.152,9.688v3.496c0,3.229,0.114,9.005,0.152,9.765h-8.436c0.037-1.406,0.076-8.967,0.076-9.803v-3.495
			c0-0.57-0.076-8.853-0.076-9.651H197.58 M181.999,42.051c-0.038,0.798-0.151,9.841-0.151,10.601v3.229
			c0,0.418,0.075,8.511,0.151,9.119h-8.511c0.037-1.102,0.15-6.345,0.15-6.953v-2.242l-8.32,0.608v0.95
			c0,1.481,0.113,6.877,0.152,7.637h-8.436c0.038-1.406,0.076-8.967,0.076-9.803v-3.495c0-0.57-0.076-8.853-0.152-9.651h8.549
			c-0.076,0.608-0.189,6.839-0.189,7.409v1.14l8.32-0.608v-1.216c0-0.532-0.076-6.003-0.15-6.725H181.999 M47.989,33.618h-1.61
			h-0.38h-1.65l-0.884,1.394c-3.95,6.23-15.292,25.468-15.402,25.656l-1.556,2.645l2.68,1.496l7.219,4.027l2.813,1.568l1.366-2.916
			l0.548-1.176c0.332-0.711,0.784-1.681,1.163-2.481l7.843-0.443c0.766,1.326,1.807,3.129,2.511,4.318l1.527,2.579l2.581-1.524
			l5.479-3.237L62,67.9l3.212,0.099l7.485,0.229l3.218,0.098l-0.129-3.217c-0.006-0.151-0.022-0.929-0.03-4.869
			c3.994,2.889,9.266,6.607,11.564,7.98l1.065,0.639l1.204-0.303l0.608-0.152l2.188-0.549l0.081-2.254
			c0.066-1.841,0.282-5.623,0.51-9.625l0.095-1.671c0.281-5.013,0.626-9.727,0.829-11.985l0.287-3.201l-3.214-0.066L83.527,38.9
			l-2.979-0.061l-0.081,2.979c-0.019,0.713-0.011,2.896,0.002,5.208c-4.011-2.836-9.21-6.375-11.518-7.872l-1.182-0.767l-1.345,0.42
			l-0.608,0.19l-1.935,0.604l-0.161,2.021c-0.174,2.187-0.468,7.396-0.752,12.433c-0.045,0.803-0.091,1.61-0.136,2.403
			c-1.6-2.446-3.764-5.798-5.885-9.085c-2.979-4.615-6.06-9.388-8.066-12.414L47.989,33.618L47.989,33.618z M140.064,37.874h-1.537
			h-0.721h-1.554l-0.896,1.267c-2.729,3.857-8.729,13.53-11.979,18.788c0.037-0.64,0.074-1.293,0.111-1.953l0.095-1.671
			c0.281-5.014,0.626-9.727,0.829-11.985l0.287-3.201l-3.214-0.066l-7.447-0.152l-2.979-0.061l-0.081,2.979
			c-0.019,0.713-0.011,2.896,0.002,5.208c-4.011-2.836-9.21-6.375-11.518-7.872l-1.182-0.767l-1.345,0.42l-0.608,0.19l-1.935,0.604
			l-0.161,2.021c-0.174,2.187-0.468,7.396-0.752,12.433c-0.266,4.707-0.541,9.573-0.648,10.646L92.515,67.9l3.213,0.099l7.485,0.229
			l3.218,0.098l-0.129-3.217c-0.006-0.151-0.022-0.929-0.03-4.869c3.994,2.889,9.266,6.607,11.564,7.98l1.065,0.639l1.204-0.303
			l0.608-0.152l2.188-0.549l0.081-2.254c0.002-0.049,0.003-0.1,0.006-0.15l6.501,3.322l2.694,1.377l1.354-2.707
			c0.257-0.514,0.569-1.146,0.879-1.774c0.163-0.331,0.349-0.706,0.524-1.062l6.646-0.324c0.683,1.111,1.522,2.48,2.147,3.43
			l1.521,2.314l2.428-1.334l6.346-3.481L153.954,68h3.082h8.435h3.154l-0.158-3.15c-0.023-0.496-0.093-3.5-0.127-5.648l2.285-0.167
			c-0.032,1.703-0.105,5.003-0.135,5.862L170.383,68h3.105h8.511h3.399l-0.416-3.32c-0.062-0.946-0.137-8.215-0.137-8.798v-3.229
			c0-0.78,0.116-9.769,0.149-10.458l0.149-3.143h-3.146h-8.512h-3.327l0.345,3.311c0.039,0.46,0.09,3.073,0.116,4.843l-2.269,0.166
			c0.037-1.911,0.098-4.475,0.137-4.981l0.419-3.338h-3.399h-8.549h-3.3l0.313,3.285c0.06,0.816,0.139,8.483,0.139,9.366v3.495
			c0,0.29-0.006,1.541-0.014,3.062c-1.058-1.533-2.507-3.669-4.005-5.877c-3.202-4.721-6.833-10.072-9.133-13.262L140.064,37.874
			L140.064,37.874z M204.611,39.051h-3.396l0.417,3.355c0.081,0.874,0.13,6.931,0.13,8.384v3.989c0,1.169-0.082,8.85-0.181,10.145
			l-0.24,3.143l3.151,0.086c0.41,0.011,0.822,0.017,1.236,0.017c12.906,0,25.932-5.362,25.932-17.34
			c0-2.24-0.962-9.667-13.34-11.221C215.152,39.192,211.689,39.051,204.611,39.051L204.611,39.051z M215.816,54.686v-4.049
			c1.258,0.323,1.258,0.883,1.258,1.332C217.074,53.183,216.532,54.059,215.816,54.686L215.816,54.686z M197.58,39.051h-8.436h-3v3
			c0,0.435,0.022,3.077,0.043,5.498c0.018,2.025,0.033,3.894,0.033,4.153v3.495c0,0.768-0.039,8.343-0.074,9.724L186.064,68h3.08
			h8.436h3.154l-0.158-3.15c-0.031-0.625-0.148-6.345-0.148-9.614V51.74c0-3.989,0.117-9.013,0.146-9.501l0.193-3.182L197.58,39.051
			L197.58,39.051z"/>
	</g>
	<g>
		<path fill="#CDE3FF" d="M101.322,94.82v0.631l-0.913,0.256c-0.672,0.188-2.832,0.576-5.224,0.576l-0.208-0.001
			c-7.916-0.108-10.735-4.245-10.735-8.08c0-3.224,2.706-9.272,12.848-11.499l1.204-0.266l1.654,7.049l-1.367,0.184
			c-2.688,0.357-6.412,2.045-6.412,4.279c0,1.012,0.866,1.505,1.68,1.725l0.005-0.451c0-0.307-0.011-0.615-0.022-0.924
			c-0.012-0.331-0.023-0.658-0.023-0.992v-1.25h7.522l-0.033,1.281c-0.021,0.826-0.022,1.335-0.022,1.954
			c2.289-3.86,5.952-10.007,7.516-12.476l0.368-0.58h1.588l0.371,0.56c1.21,1.825,3.078,4.72,4.877,7.507
			c1.247,1.932,2.45,3.797,3.38,5.221c1.597-4.066,4.014-10.209,4.927-12.211l0.334-0.729h1.732l0.366,0.595
			c1.031,1.674,3.144,5.161,4.475,7.36c0.772-1.251,1.771-2.894,2.638-4.315c0.656-1.078,2.002-3.271,2.002-3.271h1.726l0.336,0.722
			c0.825,1.772,2.481,5.466,3.94,8.724c0.782,1.746,1.539,3.436,2.09,4.649c0.006-0.987,0.009-2.054,0.009-3.049v-3.081
			c0-0.285-0.048-5.881-0.069-6.532l-0.046-1.294h1.295c1.244,0,8.952-0.344,9.765-0.41l1.318-0.107l0.109,4.533
			c1.451-2.147,4.652-4.004,9.49-4.424l1.156-0.102l1.041,6.436h-1.469c-1.266,0-2.042,0.1-2.512,0.203
			c0.258,0.135,0.553,0.278,0.832,0.416L165,83.703c1.164,0.57,3.895,1.91,3.895,4.822c0,3.025-2.813,6.884-10.742,7.797
			l-1.189,0.137l-0.258-1.637l0.029,1.322h-1.278c-0.379,0-2.31-0.047-4.416-0.1c-2.472-0.061-5.271-0.13-5.91-0.13h-1.323
			c0,0,0.077-1.349,0.077-1.36l-5.601,2.494l-0.482-1.207c-0.439-1.104-1.4-3.641-2.156-5.637c-0.052-0.137-0.103-0.271-0.151-0.4
			c-1.086,1.646-2.57,3.873-3.63,5.357l-0.375,0.523h-1.545l-0.371-0.56c-0.967-1.459-2.173-3.36-3.118-4.885
			c-0.033,0.114-0.066,0.229-0.1,0.346c-0.771,2.657-1.336,4.588-1.584,5.237l-0.442,1.154l-5.621-2.084l-3.71,2.193l-0.636-1.074
			c-0.44-0.744-1.099-1.887-1.565-2.693l-0.125-0.217l-5.429,0.307c-0.249,0.521-0.594,1.261-0.835,1.777l-0.915,1.957
			L101.322,94.82z M157.43,89.896l0.301,0.004c1.19,0,2.109-0.198,2.65-0.397c-0.383-0.235-0.87-0.513-1.193-0.696
			c-0.961-0.549-3.016-1.724-3.602-3.822l0.086,4.606h-1.273c-0.33,0-1.344-0.024-2.307-0.051c-0.216-0.005-0.428-0.011-0.629-0.017
			v0.22c0.346,0.002,0.732,0.004,1.128,0.004c1.688,0,2.382-0.029,2.668-0.054l1.325-0.114l0.007,0.291L157.43,89.896z
			 M151.463,83.575c0.941-0.041,2.148-0.104,2.754-0.159l1.242-0.111c0.014-0.113,0.032-0.225,0.057-0.337h-0.428
			c-0.495,0-1.938,0.04-3.123,0.072c-0.174,0.005-0.343,0.01-0.502,0.015V83.575z"/>
		<path fill="#1668CE" d="M110.078,77.486c2.539,3.828,7.979,12.371,9.583,14.731c-0.132,0.337-0.247,0.628-0.34,0.862l-3.885,2.296
			c-0.667-1.127-1.84-3.174-2.07-3.563l-6.921,0.391c-0.184,0.322-1.012,2.115-1.518,3.195l-4.369-2.437
			c0.69-1.173,7.06-11.958,9.29-15.478h0.23 M107.917,88.801l3.886-0.207c-0.644-1.312-1.518-2.943-1.932-3.887
			C109.319,85.811,108.514,87.514,107.917,88.801 M125.672,77.832c1.402,2.275,4.807,7.91,5.52,9.083
			c0.896-1.356,4.139-6.738,5.356-8.716h0.229c1.586,3.402,6.209,13.844,6.828,15.107l-4.645,2.069
			c-0.734-1.84-2.92-7.681-3.172-8.301c-0.277,0.413-3.221,4.942-4.945,7.358h-0.23c-1.77-2.668-4.183-6.578-4.551-7.268
			c-0.391,1.195-2.046,7.128-2.46,8.209l-4.53-1.68c0.041-0.094,0.126-0.307,0.249-0.616l0.667-0.396
			c-0.077-0.104-0.188-0.263-0.327-0.468c1.381-3.51,4.689-11.997,5.78-14.387h0.231 M165.922,77.924l0.621,3.84
			c-2.875,0-4.324,0.483-4.324,1.426c0,0.553,0.736,0.896,2.23,1.634c1.219,0.598,3.197,1.633,3.197,3.702
			c0,2.529-2.646,5.748-9.635,6.554l-0.621-3.933c0.112,0.004,0.227,0.004,0.34,0.004c2.131,0,4.328-0.61,4.328-1.637
			c0-0.459-0.392-0.736-2.254-1.793c-1.449-0.828-3.128-1.979-3.128-3.91C156.678,81.234,160.104,78.43,165.922,77.924
			 M154.996,77.924l0.092,3.794c-0.85,0-4.461,0.115-4.875,0.115v3.035c0.461,0,3.105-0.115,4.117-0.207l0.068,3.68
			c-0.621,0-3.681-0.093-4.187-0.093v2.736c0.297,0,1.306,0.013,2.378,0.013c1.083,0,2.23-0.013,2.773-0.06l0.093,3.955
			c-0.828,0-9.129-0.229-10.326-0.229c0.07-1.219,0.07-6.141,0.07-6.669v-3.081c0-0.368-0.048-5.909-0.07-6.576
			C146.42,78.338,154.146,77.993,154.996,77.924 M97.359,77.924l1.058,4.508c-3.104,0.414-7.497,2.367-7.497,5.519
			c0,2.222,2.299,3.13,4.034,3.13c0.043,0,0.085-0.001,0.128-0.002l0.023-1.84c0-0.668-0.046-1.288-0.046-1.932h4.99
			c-0.023,0.896-0.023,1.426-0.023,2.114V91.1c0,0.875,0.046,2.922,0.046,3.403c-0.559,0.156-2.618,0.53-4.887,0.53
			c-0.065,0-0.13,0-0.195-0.001c-6.691-0.093-9.497-3.22-9.497-6.83C85.493,85.396,87.931,79.993,97.359,77.924 M99.23,74.954
			l-2.407,0.528c-10.917,2.396-13.83,9.123-13.83,12.72c0,4.431,3.143,9.209,11.963,9.33l0.229,0.001
			c2.431,0,4.701-0.383,5.561-0.623l1.169-0.327l1.793,1l2.344,1.308l1.138-2.431l0.347-0.744c0.147-0.315,0.334-0.718,0.514-1.1
			l3.919-0.222c0.432,0.748,0.947,1.639,1.313,2.256l1.272,2.148l2.151-1.271l2.123-1.254l3.904,1.447l2.319,0.857l0.884-2.309
			c0.184-0.479,0.499-1.512,0.939-3.01c0.565,0.889,1.14,1.777,1.654,2.555l0.742,1.117h1.342h0.229h1.287l0.747-1.047
			c0.671-0.939,1.508-2.17,2.309-3.363c0.573,1.512,1.139,2.992,1.453,3.779l0.965,2.415l2.375-1.059l2.539-1.132l-0.037,0.636
			h2.647c0.623,0,3.415,0.069,5.879,0.13c2.505,0.063,4.062,0.1,4.447,0.1h0.39l0.069,0.442l2.382-0.274
			c8.745-1.007,11.85-5.496,11.85-9.037c0-1.935-0.918-3.306-1.972-4.261h1.304l-0.469-2.899l-0.621-3.84l-0.371-2.291l-2.313,0.201
			c-3.305,0.286-6.159,1.293-8.202,2.756l-0.008-0.326l-0.063-2.646l-2.639,0.215c-0.805,0.066-8.432,0.406-9.662,0.406h-2.59
			l0.092,2.588c0.021,0.6,0.068,6.037,0.068,6.488v0.314c-1.385-3.09-2.881-6.424-3.656-8.086l-0.673-1.443h-1.593h-0.23h-1.396
			l-0.731,1.188c-0.39,0.631-0.981,1.604-1.64,2.686c-0.5,0.82-1.045,1.716-1.563,2.563c-1.214-2.003-2.631-4.338-3.418-5.615
			l-0.732-1.188h-1.396h-0.23h-1.607l-0.667,1.462c-0.767,1.681-2.562,6.192-4.065,10.011c-0.642-0.99-1.341-2.074-2.055-3.18
			c-1.804-2.795-3.669-5.686-4.886-7.521l-0.741-1.117h-1.342h-0.23h-1.375l-0.736,1.16c-1.111,1.752-3.269,5.34-5.248,8.658h-2.44
			h-0.53l1.961-0.262l-0.63-2.686l-1.058-4.506L99.23,74.954L99.23,74.954z"/>
	</g>
</g>
</svg>
