<?xml version="1.0" encoding="utf-8"?>
<!--

   This file is part of the Artenus 2D Framework.
   Copyright (C) 2015  Hessan Feghhi

   This program is free software: you can redistribute it and/or modify
   it under the terms of the GNU General Public License as published by
   the Free Software Foundation, either version 3 of the License, or
   (at your option) any later version.

   Foobar is distributed in the hope that it will be useful,
   but WITHOUT ANY WARRANTY; without even the implied warranty of
   MERCHANTABILITY or FITNESS FOR A PARTICULAR PURPOSE.  See the
   GNU General Public License for more details.

   You should have received a copy of the GNU General Public License
   along with Foobar.  If not, see <http://www.gnu.org/licenses/>.

-->
<!DOCTYPE svg PUBLIC "-//W3C//DTD SVG 1.1//EN" "http://www.w3.org/Graphics/SVG/1.1/DTD/svg11.dtd">
<svg version="1.1" id="Layer_1" xmlns="http://www.w3.org/2000/svg" xmlns:xlink="http://www.w3.org/1999/xlink" x="0px" y="0px"
	 width="160px" height="28px" viewBox="0 2 160 28" enable-background="new 0 2 160 28" xml:space="preserve">
<g enable-background="new    ">
	<path fill="#FFFFFF" d="M1.9,2.405h3.022v20.147h9.671v2.418H1.9V2.405z"/>
	<path fill="#FFFFFF" d="M35.75,13.487c0,7.855-4.835,11.885-10.478,11.885c-6.044,0-10.276-4.635-10.276-11.484
		C14.997,6.634,19.43,2,25.474,2C31.72,2.002,35.75,6.636,35.75,13.487z M18.221,13.688c0,4.837,2.62,9.271,7.253,9.271
		c4.633,0,7.253-4.233,7.253-9.469c0-4.635-2.418-9.269-7.253-9.269S18.221,8.852,18.221,13.688z"/>
	<path fill="#FFFFFF" d="M42.802,17.919l-2.418,7.052h-3.022l7.657-22.767h3.424L56.1,24.971h-3.225l-2.418-7.052H42.802z
		 M50.256,15.502l-2.216-6.448c-0.605-1.411-0.807-2.82-1.209-4.231l0,0c-0.404,1.411-0.605,2.821-1.209,4.03l-2.216,6.65H50.256z"
		/>
	<path fill="#FFFFFF" d="M59.726,2.606c1.813-0.402,3.828-0.604,6.246-0.604c4.231,0,7.253,1.007,9.269,2.82
		c2.015,1.813,3.223,4.434,3.223,8.06c0,3.628-1.208,6.649-3.223,8.865c-2.216,2.218-5.642,3.226-10.074,3.226
		c-2.216,0-3.829-0.204-5.239-0.204V2.606H59.726z M62.547,22.754c0.805,0,1.813,0.204,3.022,0.204c6.246,0,9.672-3.425,9.672-9.671
		c0-5.44-3.022-8.664-9.269-8.664c-1.612,0-2.62,0.201-3.425,0.403V22.754z"/>
	<path fill="#FFFFFF" d="M85.112,2.405v22.767h-3.021V2.405H85.112z"/>
	<path fill="#FFFFFF" d="M90.15,24.971V2.405h3.224l7.252,11.484c1.613,2.621,3.022,5.037,4.03,7.455l0,0
		c-0.2-3.021-0.402-5.84-0.402-9.268V2.405h2.821v22.767h-3.023l-7.254-11.484c-1.409-2.619-2.819-5.238-4.028-7.858l0,0
		c0.201,2.821,0.201,5.643,0.201,9.269v9.67h-2.82V24.971z"/>
	<path fill="#FFFFFF" d="M129.641,23.963c-1.411,0.605-4.029,1.209-7.052,1.209c-3.426,0-6.248-0.805-8.463-3.021
		c-2.015-1.813-3.224-4.836-3.224-8.463c0-6.85,4.635-11.686,12.291-11.686c2.618,0,4.634,0.604,5.641,1.007l-0.604,2.418
		c-1.209-0.605-2.82-1.007-5.036-1.007c-5.441,0-9.067,3.424-9.067,9.066c0,5.84,3.426,9.066,8.663,9.066
		c2.015,0,3.226-0.203,3.83-0.604v-6.446h-4.434v-2.418h7.455V23.963z"/>
	<path fill="#FFFFFF" d="M140.319,23.157c0-1.209,0.805-2.216,2.014-2.216c1.21,0,2.015,0.804,2.015,2.216
		c0,1.21-0.805,2.217-2.015,2.217C141.124,25.374,140.319,24.367,140.319,23.157z"/>
	<path fill="#FFFFFF" d="M147.371,23.157c0-1.209,0.805-2.216,2.015-2.216c1.209,0,2.015,0.804,2.015,2.216
		c0,1.21-0.806,2.217-2.015,2.217C148.176,25.374,147.371,24.367,147.371,23.157z"/>
	<path fill="#FFFFFF" d="M154.221,23.157c0-1.209,0.804-2.216,2.015-2.216c1.209,0,2.015,0.804,2.015,2.216
		c0,1.21-0.806,2.217-2.015,2.217S154.221,24.367,154.221,23.157z"/>
</g>
</svg>
